<svg width="1908" height="1902" viewBox="0 0 1908 1902" fill="none" xmlns="http://www.w3.org/2000/svg">
<path d="M1828.96 1320.89C1827.64 1321.12 1826.38 1321.28 1825.06 1321.28C1818.63 1321.28 1812.93 1318.62 1807.07 1315.72C1759.9 1292.27 1726.91 1255.75 1707.82 1207.09C1695.69 1176.13 1670.44 1160.88 1642.75 1148.21C1639.7 1146.88 1637.04 1146.18 1634.62 1146.18C1628.44 1146.18 1624.07 1150.63 1620.62 1158.85C1616.56 1168.54 1617.19 1178.71 1619.05 1188.56C1624.54 1216.4 1630.78 1244.08 1642.45 1270.06C1655.97 1300.47 1665.04 1332.39 1670.05 1365.08C1676.93 1409.34 1665.43 1450.71 1642.99 1488.94C1635.17 1502.16 1626.65 1515.22 1616.56 1526.57C1585.98 1560.98 1568.38 1601.87 1554.31 1644.74C1552.43 1650.36 1550.86 1656.15 1548.13 1661.31C1544.53 1668.19 1538.98 1672.11 1533.11 1672.11C1529.28 1672.11 1525.37 1670.46 1521.85 1666.78C1503.32 1647.87 1484.86 1628.47 1476.73 1602.04C1472.42 1587.88 1473.28 1574.12 1479.77 1560.75C1486.42 1546.97 1492.83 1532.98 1499.87 1519.37C1517.08 1485.74 1518.57 1450.31 1512.54 1414.03C1510.59 1402.22 1505.66 1391.43 1498.23 1381.97C1494.95 1377.74 1491.27 1373.83 1485.88 1373.83C1484.63 1373.83 1483.22 1374.07 1481.81 1374.54C1474.92 1376.73 1471.02 1381.57 1469.85 1388.61C1466.25 1410.74 1461.24 1432.8 1459.44 1455.08C1456.54 1490.43 1443.8 1521.48 1423.78 1550.02C1418.38 1557.69 1412.83 1565.52 1406.58 1572.48C1371.15 1611.65 1357.93 1659.2 1352.38 1710.12C1348.63 1743.98 1350.89 1777.29 1358.56 1810.29C1359.18 1813.19 1359.66 1816.24 1359.34 1819.05C1358.71 1825.24 1355.81 1828.52 1350.97 1828.52C1349.48 1828.52 1347.69 1828.12 1345.73 1827.42C1339.01 1824.99 1333.06 1821.01 1327.82 1816.24C1312.11 1801.84 1296.46 1787.53 1281.06 1772.75C1269.24 1761.42 1266.58 1746.01 1264.64 1730.76C1262.68 1714.89 1261.89 1698.93 1260.88 1683.05C1258.77 1649.27 1246.01 1620.1 1222.64 1595.7C1214.89 1587.73 1206.76 1583.73 1198.31 1583.73C1190.89 1583.73 1183.22 1586.86 1175.56 1593.2C1168.13 1599.21 1162.74 1607.04 1157.41 1614.86C1136.53 1645.12 1114.48 1674.22 1085.93 1697.91C1046.21 1730.76 1000.3 1749.77 950.096 1758.59C924.593 1763.06 899.025 1764.85 873.445 1764.85C847.802 1764.85 822.146 1763.06 796.502 1760.48C769.599 1757.82 742.773 1754.22 715.704 1754.22C710.235 1754.22 704.765 1754.37 699.283 1754.69C685.52 1755.55 671.922 1756.95 659.634 1762.82C630.315 1777.05 599.571 1787.3 568.915 1797.86C549.759 1804.43 532.243 1814.21 515.504 1825.31C510.111 1828.99 504.641 1832.5 498.141 1833.99C496.577 1834.38 495.012 1834.53 493.613 1834.53C485.548 1834.53 481.414 1828.83 485.472 1820.54C498.141 1794.66 509.017 1767.68 532.32 1748.36C562.822 1723.02 595.983 1701.43 628.203 1678.36C652.753 1660.84 677.239 1643.33 698.113 1621.27C701.712 1617.44 705.465 1613.61 708.67 1609.39C711.405 1605.71 714.699 1601.8 711.405 1596.64C708.365 1591.71 703.595 1592.1 698.812 1591.95H698.189C690.531 1591.95 683.726 1595.46 676.692 1597.74C654.241 1605 632.032 1612.52 608.017 1614.16C604.112 1614.46 600.118 1614.54 596.212 1614.54C576.814 1614.54 558.129 1610.88 541.389 1600.7C514.957 1584.6 487.278 1578.96 458.264 1578.96C448.558 1578.96 438.713 1579.59 428.703 1580.6C421.732 1581.39 414.85 1581.77 408.134 1581.77C355.028 1581.77 310.368 1558.71 274.714 1517.11C249.452 1487.62 219.026 1466.43 183.995 1450.94C167.332 1443.51 150.287 1436.63 133.865 1428.73C119.632 1422.01 114.938 1414.96 116.973 1406.84C118.461 1400.81 123.066 1397.52 132.453 1397.52C135.43 1397.52 138.864 1397.84 142.858 1398.47C149.969 1399.64 156.939 1400.18 163.897 1400.18C185.318 1400.18 206.128 1395.26 226.925 1390.17C252.11 1383.91 276.978 1376.33 301.769 1368.68C310.763 1365.93 319.603 1362.1 327.655 1357.33C336.966 1351.78 336.571 1343.25 327.108 1338.1C322.579 1335.59 317.25 1334.25 312.098 1333.01C281.277 1325.34 253.828 1310.72 227.79 1292.97C203.316 1276.39 185.012 1254.02 169.837 1229.15C158.504 1210.46 147.628 1191.54 139.805 1170.97C128.154 1140.24 108.603 1114.19 89.3706 1088C84.5115 1081.34 79.1945 1074.93 74.4245 1068.28C72.0077 1064.92 69.6544 1061.32 68.3316 1057.57C66.1437 1051.23 65.6731 1044.51 70.6721 1039.19C73.1016 1036.61 75.989 1035.68 78.8892 1035.68C81.7003 1035.68 84.6005 1036.45 87.3353 1037.32C105.627 1042.71 122.214 1051.78 137.618 1062.81C168.515 1084.79 200.963 1104.1 233.883 1122.72C243.664 1128.19 253.522 1133.66 264.156 1137.11C267.591 1138.28 271.19 1139.3 274.714 1139.3C278.148 1139.3 281.443 1138.28 284.33 1135.54C290.589 1129.36 289.8 1121.07 286.518 1113.96C281.672 1103.25 275.732 1092.99 269.944 1082.68C260.404 1065.7 249.923 1049.2 244.135 1030.44C242.252 1024.26 239.836 1018.07 238.742 1011.74C237.101 1001.5 239.441 996.564 246.17 996.564C248.752 996.564 251.958 997.352 255.787 998.764C268.456 1003.46 281.048 1008.77 294.341 1011.43C296.923 1011.89 299.264 1012.21 301.375 1012.21C309.44 1012.21 314.757 1008.46 319.527 1000.24C326.166 988.83 324.373 979.99 312.403 973.655C298.958 966.379 284.648 960.591 270.885 953.786C237.101 937.212 206.128 917.191 186.73 883.177C158.656 833.976 154.357 784.088 180.789 732.865C186.73 721.366 193.064 710.032 198.775 698.292C212.615 669.672 218.173 639.093 220.043 607.573C220.908 592.881 222.32 578.177 223.643 563.472C224.813 550.88 229.354 539.304 235.142 528.276C245.776 507.86 257.275 487.928 265.479 466.342C266.967 462.501 269.079 458.825 271.343 455.39C275.185 449.832 278.619 447.021 282.537 447.021C285.666 447.021 289.024 448.814 293.018 452.49C311.233 469.306 321.015 490.192 322.261 514.984C325.238 575.747 353.311 625.406 390.848 670.918C393.824 674.518 397.653 677.571 401.634 680.077C406.493 683.13 411.022 684.605 414.939 684.605C423.22 684.605 428.779 677.965 429.478 665.843C430.102 654.115 429.555 642.222 429.555 630.418H429.084C428.066 606.25 426.349 582.006 426.197 557.837C426.12 527.882 432.455 499.338 447.465 472.906C461.622 447.809 481.325 429.187 507.999 418.006C519.969 413.007 531.925 407.919 544.124 403.696C573.774 393.609 597.624 375.471 615.216 350.285C630.15 328.928 649.866 315.407 673.321 305.701C687.479 299.914 701.089 292.727 715.005 286.316C719.851 284.039 725.092 281.457 730.103 281.457C733.462 281.457 736.667 282.551 739.567 285.769C746.131 292.879 741.908 301.478 737.608 308.754C725.41 329.399 718.833 351.773 714.776 375.305C711.647 393.215 705.541 410.654 701.165 428.411C698.189 440.533 697.718 453.05 698.736 465.401C699.754 479.012 706.953 486.669 717.587 486.669C720.869 486.669 724.392 485.969 728.221 484.481C735.344 481.746 742.531 478.388 748.484 473.771C775.463 452.414 800.331 429.034 815.658 397.285C822.769 382.352 829.816 367.33 837.791 352.943C853.513 324.552 874.628 301.096 902.307 283.568C922.328 270.988 943.444 260.431 964.788 250.331C984.975 240.791 1006.87 239.15 1028.6 237.204C1043.86 235.792 1059.27 235.398 1074.43 233.133C1121.43 226.328 1160.38 205.518 1188.77 166.264C1200.74 149.69 1205.59 131.233 1205.67 111.365C1205.74 98.5428 1208.95 86.815 1215.13 75.863C1217.71 71.322 1221.07 66.7937 1226.46 66.7937C1227.25 66.7937 1228.11 66.87 1229.05 67.099C1235.7 68.7399 1237.49 74.6038 1237.96 80.9384C1240.15 109.953 1248.99 137.644 1254.31 165.959C1264.87 221.787 1253.53 272.858 1212.62 314.694C1197.77 329.946 1181.58 343.785 1166.02 358.337C1158.2 365.536 1150.3 372.647 1144.43 381.716C1142.4 384.769 1140.83 388.216 1143.34 391.498C1144.9 393.609 1147.01 394.385 1149.36 394.385C1150.53 394.385 1151.71 394.232 1152.96 393.838C1159.76 391.892 1166.79 390.48 1173.21 387.669C1189.4 380.469 1205.67 377.111 1221.77 377.111C1239.53 377.111 1257.21 381.169 1274.56 388.992C1290.13 395.95 1305.46 399.473 1320.86 399.473C1333.92 399.473 1347.06 396.891 1360.43 391.727C1372.55 387.122 1384.99 383.28 1397.19 378.752C1415.65 371.794 1433.94 368.424 1452.09 368.424C1475.24 368.424 1498.23 373.906 1520.98 384.374C1533.89 390.327 1546.56 396.662 1558.37 404.485C1580.11 419.024 1603.65 429.899 1627.97 439.045C1636.34 442.174 1644.39 445.85 1651.75 450.849C1656.68 454.22 1661.29 457.973 1664.34 463.137C1670.99 474.241 1666.84 483.616 1653.93 484.176C1645.56 484.557 1637.12 484.799 1628.59 484.799C1619.37 484.799 1610.06 484.481 1600.84 483.781C1599.35 483.705 1597.86 483.616 1596.38 483.616C1564.94 483.616 1537.57 509.12 1528.65 533.987C1523.18 549.239 1528.97 561.832 1544.85 565.037C1579.41 572.071 1610.14 588.734 1642.05 602.421C1666.45 612.89 1690.77 623.447 1716.11 631.512C1725.57 634.552 1734.96 635.735 1744.42 635.735C1752.48 635.735 1760.53 634.87 1768.67 633.382C1775.4 632.135 1780.24 627.988 1785.87 624.707C1790.09 622.277 1793.93 621.107 1797.14 621.107C1804.64 621.107 1809.09 627.289 1808.55 638.393C1808.24 645.974 1807.22 653.874 1804.64 660.997C1790.41 700.098 1753.02 743.499 1697.03 743.499C1690.47 743.499 1683.74 742.952 1676.78 741.693C1665.13 739.594 1653.46 737.393 1642.13 734.111C1630.55 730.677 1619.3 729.023 1608.19 729.023C1586.29 729.023 1565.41 735.523 1545.23 747.722C1537.72 752.339 1530.37 757.338 1523.34 762.821C1506.75 775.795 1508.95 791.046 1528.88 798.475C1538.27 801.998 1548.13 804.339 1557.99 805.98C1592.94 811.844 1622.18 828.736 1648.86 851.187C1664.41 864.25 1674.82 880.519 1678.02 900.375C1681 918.984 1690.54 933.218 1703.76 945.658C1724.01 964.815 1746.14 981.554 1769.91 996.017C1783.21 1004.16 1794.55 1014.4 1804.56 1026.13C1823.4 1048.11 1830.3 1073.29 1826.07 1101.99C1816.84 1163.46 1819.65 1224.46 1834.43 1284.91C1835.92 1291.17 1838.58 1297.19 1840.31 1303.45C1843.12 1313.53 1839.44 1319.17 1828.96 1320.89ZM1904.66 1285.38C1903.26 1280.61 1901.85 1276.47 1900.68 1273.19C1900.21 1271.7 1899.43 1269.59 1899.26 1268.87C1886.67 1217.42 1884.25 1164.56 1892.15 1111.85C1899.26 1063.83 1886.6 1019.17 1855.32 982.648C1839.75 964.509 1823.17 950.276 1804.72 939.006C1784.62 926.731 1766.09 912.65 1749.66 897.169C1747.23 894.829 1744.26 891.7 1743.95 889.741C1739.11 859.709 1725.03 832.501 1702.89 810.203C1791.18 807.392 1846.55 740.917 1867.36 683.906C1871.98 671.389 1874.55 657.473 1875.34 641.522C1876.43 616.884 1868.53 594.357 1853.05 578.088C1838.42 562.76 1818.56 554.314 1797.14 554.314C1781.96 554.314 1766.86 558.537 1752.48 566.907C1751.46 567.454 1750.44 568.09 1749.42 568.713C1747.63 568.866 1745.99 568.942 1744.42 568.942C1741.29 568.942 1738.71 568.637 1736.37 567.848C1718.22 562.137 1700.08 554.556 1681.08 546.415C1700.01 540.08 1715.64 527.182 1725.1 509.743C1738.39 485.028 1737.15 454.767 1721.74 428.882C1711.66 411.913 1698.36 401.737 1689.28 395.568C1678.25 388.14 1666.22 382.034 1651.52 376.475C1628.59 367.877 1610.77 359.125 1595.36 348.873C1579.1 338.086 1562.76 330.111 1548.9 323.687C1517.08 309.072 1484.54 301.643 1452.09 301.643C1425.81 301.643 1399.46 306.566 1373.72 316.182C1368.65 318.065 1363.56 319.782 1358.4 321.576C1351.36 324.005 1344.09 326.511 1336.51 329.399C1330.87 331.586 1325.71 332.604 1320.86 332.604C1315.07 332.604 1308.81 331.116 1301.86 327.999C1298.18 326.346 1294.43 324.781 1290.67 323.382C1321.72 274.664 1331.89 216.788 1320.01 153.595C1317.9 142.414 1315.47 131.857 1313.04 121.604C1309.21 105.259 1305.61 89.7789 1304.59 76.0158C1301.31 31.5975 1271.67 8.76499 1245 2.26505C1238.9 0.789532 1232.65 0.000775663 1226.46 0.000775663C1212.94 0.000775663 1179.08 4.14755 1157.1 42.8546C1145.06 63.9698 1138.96 86.9676 1138.87 111.136C1138.87 120.052 1136.85 124.11 1134.65 127.163C1118.23 149.843 1096.02 162.512 1064.82 167.053C1057.54 168.147 1049.1 168.694 1040.1 169.317C1034.24 169.711 1028.38 170.093 1022.59 170.64L1019.93 170.882C996.079 173.069 966.276 175.728 936.244 189.962C914.111 200.443 890.338 212.171 866.653 227.104C844.52 241.033 824.969 258.23 808.154 278.417C804.159 259.171 793.754 245.955 788.679 240.486C773.352 223.822 752.542 214.677 730.103 214.677C710.705 214.677 695.925 221.558 687.949 225.234L687.008 225.629C681.615 228.122 676.298 230.704 670.981 233.286C662.764 237.28 655.03 241.033 647.83 243.996C610.217 259.489 581.673 281.699 560.546 311.959C550.853 325.723 538.502 335.034 522.627 340.503C508.94 345.121 496.424 350.361 484.302 355.449L482.114 356.378C442.542 372.965 411.34 401.114 389.359 439.91C385.289 447.021 381.702 454.297 378.484 461.725C369.961 439.745 356.364 419.965 338.136 403.302C321.473 387.974 302.711 380.24 282.537 380.24C267.285 380.24 238.424 385.087 216.138 417.854C210.656 425.905 206.28 434.199 203.075 442.492C197.987 455.785 190.558 469.777 182.659 484.557C180.395 488.78 178.131 493.004 175.943 497.303C165.144 517.871 159.051 537.511 157.168 557.214L156.774 561.043C155.527 574.806 154.192 589.04 153.339 603.668C151.699 630.889 147.081 651.762 138.635 669.201C135.582 675.459 132.148 682.023 128.472 688.905C126.042 693.369 123.702 697.745 121.425 702.286C85.7707 771.419 88.2766 845.399 128.701 916.326C142.388 940.265 159.598 959.027 177.889 974.049C174.213 982.495 171.644 992.735 171.478 1004.93C149.892 990.153 128.472 979.761 106.186 973.184C99.3811 971.225 90.1464 968.885 78.8892 968.885C57.1507 968.885 36.964 977.56 22.107 993.358C0.686451 1016.04 -5.64816 1048.18 5.21474 1079.47C9.43779 1091.51 15.3782 1100.66 20.1482 1107.23C23.4427 1111.85 26.8007 1116.14 29.7008 1119.9C31.647 1122.48 33.6822 1124.99 35.5647 1127.57L37.6763 1130.45C53.9324 1152.59 69.3492 1173.55 77.3246 1194.67C87.0936 1220.31 100.157 1243.08 112.826 1263.87C129.96 1292.02 148.964 1314.87 170.384 1333.16C168.196 1333.33 166.009 1333.4 163.897 1333.4C160.297 1333.4 157.016 1333.16 153.886 1332.61C146.216 1331.29 139.182 1330.67 132.453 1330.67C92.7286 1330.67 61.2084 1354.2 52.139 1390.64C44.2399 1422.24 54.0216 1464.71 105.08 1489.03C116.973 1494.73 128.701 1499.74 139.958 1504.59C145.669 1507.09 151.304 1509.51 156.939 1512.02C184.465 1524.22 206.433 1540.09 224.037 1560.58C273.455 1618.14 337.118 1648.57 408.134 1648.57C417.204 1648.57 426.502 1648.1 435.813 1647.08C444.106 1646.14 451.382 1645.76 458.264 1645.76C478.12 1645.76 493.066 1649.43 506.663 1657.71C513.163 1661.71 519.88 1665.14 526.927 1668.12C514.41 1677.19 501.894 1686.73 489.619 1696.98C458.098 1723.09 442.542 1755.55 430.102 1781.59C428.537 1784.8 427.062 1787.93 425.497 1791.13C413.451 1815.77 414.469 1843.77 428.308 1865.98C442.148 1888.11 466.545 1901.33 493.613 1901.33C500.024 1901.33 506.511 1900.63 512.922 1899.14C531.62 1894.92 545.218 1885.85 552.57 1880.91C566.88 1871.37 579.002 1865.04 590.667 1861.05L597.624 1858.63C627.262 1848.46 657.917 1837.9 688.496 1823.12C689.908 1822.65 693.661 1821.94 703.201 1821.39C707.182 1821.16 711.329 1821.09 715.704 1821.09C734.009 1821.09 753.406 1823.12 773.975 1825.31C779.215 1825.86 784.532 1826.41 789.849 1826.95C821.599 1830.16 848.196 1831.65 873.445 1831.65C905.042 1831.65 933.904 1829.29 961.672 1824.37C1025.87 1813.11 1082.03 1787.85 1128.56 1749.3C1154.52 1727.79 1175.24 1703.62 1193.39 1679.45C1193.77 1681.96 1194.02 1684.54 1194.17 1687.2L1194.56 1693.06C1195.5 1707.84 1196.43 1723.02 1198.39 1738.89C1200.5 1756.25 1204.97 1792.38 1234.83 1821.01C1250.16 1835.63 1264.94 1849.24 1282.78 1865.51C1295.05 1876.76 1308.66 1885.06 1323.14 1890.3C1332.28 1893.58 1341.67 1895.3 1350.97 1895.3C1390.31 1895.3 1421.83 1866.05 1425.81 1825.78C1426.83 1815.92 1426.13 1805.91 1423.62 1795.28C1417.52 1768.77 1415.88 1743.27 1418.78 1717.38C1421.19 1695.02 1425.04 1676.49 1430.66 1660.77C1444.12 1682.82 1460.69 1699.79 1474.07 1713.48C1490.02 1729.9 1511.06 1738.97 1533.11 1738.97C1563.85 1738.97 1592.23 1721.06 1607.33 1692.36C1612.25 1682.97 1614.91 1674.53 1616.87 1668.35L1617.73 1665.61C1632.27 1621.35 1646.9 1593.04 1666.53 1570.91C1681.7 1553.78 1693.2 1535.24 1700.55 1522.82C1732.85 1467.92 1744.82 1411.45 1736.13 1354.9C1735.81 1353.26 1735.58 1351.62 1735.35 1349.98C1748.25 1359.52 1762.26 1368.04 1777.34 1375.56C1785.48 1379.61 1802.53 1388.06 1825.06 1388.06C1830.13 1388.06 1835.22 1387.59 1840.22 1386.74C1864.23 1382.67 1884.09 1369.92 1896.14 1350.92C1908.1 1331.91 1911.16 1308.69 1904.66 1285.38Z" fill="#FDD500"/>
<path d="M1427.7 1155.63C1419.57 1196.14 1402.44 1232.98 1381.24 1267.86C1328.61 1354.35 1258.15 1421.68 1164.38 1462.04C1121.53 1480.5 1075.7 1490.11 1030.02 1499.65C1005.39 1504.74 980.678 1503.63 955.886 1504.18C900.287 1503.33 844.917 1499.65 790.946 1485.34C728.389 1468.85 671.848 1440.61 624.53 1395.49C558.207 1332.3 508.002 1258.7 485.64 1169.16C470.465 1108.08 466.165 1045.13 476.1 982.712C488.845 902.398 518.559 828.812 567.989 763.037C601.697 718.148 641.345 679.823 682.635 642.68C697.657 629.146 714.549 617.965 732.217 608.667C794.545 576.053 860.791 555.484 930.866 548.756C1017.51 540.386 1100.17 555.166 1177.99 595.133C1216.77 615.078 1248.92 643.774 1281.21 672.47C1322.44 709.002 1354.49 752.556 1380.7 800.574C1405.81 846.48 1421.21 895.91 1429.34 947.681C1440.29 1017.13 1441.54 1086.34 1427.7 1155.63ZM1497.15 973.96C1491.98 930.394 1482.28 887.77 1467.74 846.557C1431.92 744.657 1369.2 661.455 1285.36 594.268C1255.88 570.659 1224.6 548.756 1189.02 535.145C1141.62 517.083 1093.21 502.302 1042.69 494.479C995.14 487.127 948.381 486.109 902.78 491.426C893.24 492.52 883.7 493.856 874.236 495.573C860.003 498.003 845.934 501.132 831.93 504.884C822.542 507.39 813.32 510.125 804.085 513.178C781.024 520.759 758.255 530.146 735.893 541.174C648.456 584.333 575.888 647.221 518.012 726.67C501.196 749.745 490.957 776.406 475.082 799.874C466.483 812.696 459.983 826.535 453.891 840.693C438.639 876.207 429.646 913.273 424.405 951.51C416.112 1011.57 414.942 1071.48 425.652 1131.38C431.758 1165.79 443.638 1198.56 454.361 1231.64C468.9 1276.53 490.957 1317.52 518.559 1355.28C554.697 1404.86 598.568 1446.87 650.021 1480.57C682.164 1501.61 714.308 1522.96 751.068 1535.16C757.874 1537.42 764.679 1539.53 771.471 1541.57C778.277 1543.52 785.158 1545.48 792.04 1547.28C795.487 1548.14 798.934 1548.99 802.368 1549.86C810.967 1551.89 819.655 1553.76 828.33 1555.42C837.018 1557.06 845.769 1558.46 854.533 1559.72C858.056 1560.19 861.567 1560.65 865.091 1561.04C879.172 1562.68 893.405 1563.7 907.715 1564.02C917.726 1564.32 927.813 1564.25 937.976 1563.78C946.27 1563.78 955.098 1563.62 964.014 1563.78H969.179C1023.06 1563.78 1074.6 1551.89 1124.66 1532.42C1124.66 1532.42 1124.73 1532.42 1124.88 1532.34C1125.04 1532.27 1125.28 1532.19 1125.6 1532.1C1134.9 1528.99 1212.32 1502.54 1275.35 1462.74C1301.23 1446.39 1322.74 1428.64 1322.74 1428.64C1338.7 1415.5 1349.72 1404.48 1353.95 1400.26C1357.47 1396.66 1366.07 1387.82 1376.94 1374.83C1405.49 1344.72 1426.06 1309.37 1444.91 1273.1C1446 1270.99 1447.02 1269.1 1447.87 1267.46C1449.68 1264.02 1450.77 1261.83 1451.24 1260.98C1479.32 1206.38 1495.81 1148.2 1501.83 1087.04C1505.51 1049.11 1501.6 1011.57 1497.15 973.96Z" fill="#FDD500"/>
<path d="M1501.82 1087.05C1495.81 1148.21 1479.3 1206.39 1451.22 1260.98C1450.75 1261.83 1449.66 1264.02 1447.86 1267.47C1447 1269.11 1445.98 1270.99 1444.89 1273.1C1426.04 1309.38 1405.47 1344.73 1376.92 1374.84C1366.06 1387.83 1357.45 1396.67 1353.94 1400.27C1349.72 1404.48 1338.69 1415.5 1322.74 1428.64C1322.74 1428.64 1301.23 1446.4 1275.34 1462.75C1212.3 1502.55 1134.89 1528.98 1125.58 1532.11C1125.26 1532.19 1125.03 1532.27 1124.88 1532.35C1124.71 1532.43 1124.64 1532.43 1124.64 1532.43C1074.58 1551.9 1023.05 1563.78 969.171 1563.78H964.007C955.09 1563.63 946.25 1563.78 937.969 1563.78C927.793 1564.25 917.706 1564.33 907.696 1564.02C893.386 1563.71 879.152 1562.69 865.071 1561.05C861.56 1560.65 858.037 1560.19 854.513 1559.72C845.762 1558.46 836.998 1557.07 828.323 1555.41C819.635 1553.77 810.96 1551.9 802.361 1549.87C798.914 1549 795.48 1548.15 792.033 1547.28C785.151 1545.49 778.269 1543.53 771.464 1541.57C764.659 1539.54 757.854 1537.43 751.049 1535.16C714.3 1522.96 682.157 1501.62 650.013 1480.58C598.548 1446.87 554.677 1404.87 518.552 1355.29C490.937 1317.52 468.893 1276.54 454.341 1231.65C443.631 1198.56 431.738 1165.8 425.645 1131.39C414.922 1071.49 416.105 1011.58 424.386 951.516C429.626 913.28 438.619 876.201 453.871 840.699C459.976 826.542 466.464 812.703 475.062 799.881C490.937 776.412 501.189 749.751 518.005 726.677C575.868 647.228 648.449 584.34 735.886 541.181C758.248 530.153 781.004 520.765 804.078 513.184C813.3 510.131 822.535 507.397 831.922 504.891C845.915 501.138 859.996 498.009 874.229 495.58C883.693 493.862 893.233 492.527 902.773 491.433C948.362 486.116 995.133 487.134 1042.68 494.486C1093.2 502.309 1141.6 517.089 1189 535.152C1224.59 548.762 1255.87 570.653 1285.35 594.274C1369.19 661.461 1431.91 744.663 1467.72 846.563C1482.27 887.776 1491.96 930.401 1497.13 973.967C1501.59 1011.58 1505.5 1049.12 1501.82 1087.05ZM1840.29 1303.44C1838.57 1297.18 1835.91 1291.17 1834.43 1284.91C1819.65 1224.45 1816.83 1163.46 1826.06 1101.98C1830.28 1073.28 1823.4 1048.1 1804.56 1026.13C1794.55 1014.39 1783.2 1004.15 1769.91 996.011C1746.14 981.548 1724 964.809 1703.75 945.652C1690.54 933.212 1681 918.991 1678.02 900.369C1674.81 880.513 1664.41 864.244 1648.85 851.181C1622.18 828.742 1592.94 811.85 1557.97 805.974C1548.12 804.333 1538.27 801.992 1528.88 798.469C1508.95 791.04 1506.75 775.789 1523.33 762.815C1530.37 757.332 1537.72 752.333 1545.22 747.716C1565.41 735.517 1586.28 729.03 1608.19 729.03C1619.29 729.03 1630.55 730.671 1642.12 734.105C1653.46 737.387 1665.11 739.588 1676.77 741.699C1683.73 742.946 1690.45 743.493 1697.02 743.493C1753.02 743.493 1790.4 700.092 1804.64 660.991C1807.22 653.868 1808.24 645.969 1808.54 638.387C1809.09 627.283 1804.64 621.101 1797.13 621.101C1793.93 621.101 1790.08 622.271 1785.86 624.701C1780.24 627.982 1775.38 632.129 1768.66 633.376C1760.52 634.864 1752.47 635.729 1744.42 635.729C1734.96 635.729 1725.57 634.559 1716.1 631.506C1690.77 623.441 1666.44 612.896 1642.05 602.415C1610.13 588.728 1579.4 572.065 1544.84 565.031C1528.95 561.826 1523.17 549.233 1528.65 533.981C1537.57 509.114 1564.94 483.623 1596.37 483.623C1597.86 483.623 1599.35 483.699 1600.84 483.776C1610.06 484.475 1619.37 484.793 1628.59 484.793C1637.11 484.793 1645.56 484.551 1653.93 484.17C1666.84 483.623 1670.99 474.236 1664.33 463.131C1661.28 457.967 1656.66 454.214 1651.74 450.843C1644.39 445.844 1636.34 442.168 1627.97 439.039C1603.65 429.893 1580.1 419.018 1558.36 404.479C1546.56 396.656 1533.89 390.322 1520.98 384.369C1498.22 373.9 1475.24 368.418 1452.09 368.418C1433.94 368.418 1415.64 371.788 1397.19 378.746C1384.99 383.275 1372.55 387.116 1360.43 391.721C1347.06 396.885 1333.92 399.467 1320.85 399.467C1305.45 399.467 1290.12 395.944 1274.55 388.986C1257.19 381.163 1239.52 377.105 1221.77 377.105C1205.66 377.105 1189.39 380.463 1173.2 387.663C1166.79 390.474 1159.76 391.886 1152.95 393.832C1151.7 394.226 1150.52 394.379 1149.35 394.379C1147.01 394.379 1144.9 393.603 1143.33 391.492C1140.83 388.21 1142.39 384.763 1144.43 381.71C1150.29 372.641 1158.19 365.53 1166.01 358.331C1181.57 343.792 1197.76 329.94 1212.62 314.688C1253.51 272.852 1264.86 221.781 1254.3 165.953C1248.99 137.638 1240.15 109.947 1237.96 80.9325C1237.49 74.5979 1235.69 68.7338 1229.04 67.0929C1228.1 66.864 1227.25 66.7878 1226.46 66.7878C1221.07 66.7878 1217.71 71.3159 1215.13 75.8569C1208.94 86.8089 1205.74 98.5369 1205.66 111.359C1205.59 131.227 1200.73 149.684 1188.77 166.258C1160.38 205.525 1121.43 226.322 1074.43 233.127C1059.25 235.392 1043.85 235.786 1028.6 237.198C1006.86 239.144 984.97 240.785 964.783 250.325C943.439 260.425 922.324 270.982 902.302 283.562C874.611 301.091 853.508 324.546 837.786 352.937C829.811 367.324 822.764 382.346 815.654 397.279C800.326 429.029 775.458 452.408 748.466 473.765C742.526 478.382 735.339 481.74 728.216 484.475C724.387 485.963 720.864 486.663 717.582 486.663C706.948 486.663 699.749 479.005 698.731 465.395C697.714 453.044 698.184 440.527 701.161 428.405C705.536 410.648 711.642 393.209 714.771 375.299C718.829 351.767 725.405 329.393 737.604 308.748C741.903 301.472 746.126 292.873 739.562 285.763C736.662 282.557 733.457 281.451 730.099 281.451C725.087 281.451 719.846 284.033 715 286.31C701.084 292.721 687.474 299.908 673.317 305.695C649.861 315.401 630.145 328.922 615.211 350.279C597.62 375.464 573.757 393.603 544.119 403.69C531.921 407.913 519.951 413.001 507.994 418C481.321 429.181 461.617 447.803 447.46 472.9C432.45 499.332 426.116 527.876 426.192 557.831C426.345 581.999 428.062 606.244 429.079 630.412H429.55C429.55 642.216 430.097 654.109 429.474 665.837C428.774 677.959 423.215 684.599 414.922 684.599C411.017 684.599 406.476 683.124 401.63 680.071C397.648 677.565 393.807 674.512 390.843 670.912C353.306 625.4 325.22 575.741 322.257 514.978C320.997 490.186 311.228 469.3 293.001 452.497C289.019 448.821 285.648 447.015 282.532 447.015C278.614 447.015 275.18 449.838 271.338 455.384C269.074 458.831 266.963 462.508 265.474 466.336C257.27 487.922 245.771 507.854 235.137 528.27C229.35 539.298 224.809 550.874 223.638 563.466C222.303 578.171 220.904 592.875 220.039 607.567C218.169 639.087 212.61 669.666 198.771 698.286C193.059 710.027 186.725 721.36 180.785 732.859C154.352 784.082 158.652 833.97 186.725 883.171C206.123 917.185 237.083 937.206 270.868 953.78C284.643 960.586 298.953 966.373 312.399 973.649C324.368 979.984 326.162 988.824 319.522 1000.23C314.752 1008.45 309.435 1012.2 301.37 1012.2C299.259 1012.2 296.918 1011.9 294.336 1011.43C281.044 1008.77 268.451 1003.45 255.782 998.758C251.953 997.346 248.748 996.57 246.166 996.57C239.437 996.57 237.083 1001.49 238.737 1011.73C239.831 1018.07 242.248 1024.25 244.13 1030.43C249.918 1049.19 260.399 1065.7 269.939 1082.67C275.727 1092.99 281.667 1103.24 286.513 1113.95C289.795 1121.06 290.584 1129.35 284.326 1135.54C281.425 1138.27 278.144 1139.29 274.709 1139.29C271.186 1139.29 267.586 1138.27 264.152 1137.1C253.518 1133.65 243.66 1128.18 233.878 1122.71C200.959 1104.09 168.497 1084.78 137.613 1062.8C122.209 1051.78 105.622 1042.71 87.3305 1037.31C84.583 1036.45 81.6956 1035.67 78.8845 1035.67C75.9843 1035.67 73.0968 1036.6 70.6673 1039.18C65.6683 1044.5 66.1263 1051.23 68.3268 1057.56C69.6497 1061.32 72.0029 1064.92 74.4197 1068.27C79.1897 1074.93 84.5067 1081.34 89.3657 1087.99C108.598 1114.18 128.149 1140.23 139.801 1170.96C147.623 1191.53 158.499 1210.46 169.833 1229.14C185.008 1254.01 203.299 1276.39 227.785 1292.96C253.823 1310.72 281.273 1325.34 312.093 1333C317.245 1334.25 322.562 1335.58 327.103 1338.09C336.567 1343.24 336.961 1351.78 327.65 1357.32C319.598 1362.09 310.758 1365.92 301.765 1368.67C276.973 1376.33 252.106 1383.92 226.92 1390.17C206.123 1395.25 185.313 1400.18 163.892 1400.18C156.935 1400.18 149.964 1399.63 142.853 1398.46C138.859 1397.84 135.425 1397.52 132.448 1397.52C123.061 1397.52 118.456 1400.81 116.968 1406.83C114.933 1414.96 119.627 1422 133.86 1428.72C150.282 1436.62 167.327 1443.5 183.99 1450.94C219.021 1466.42 249.447 1487.61 274.709 1517.1C310.363 1558.71 355.023 1581.77 408.129 1581.77C414.846 1581.77 421.727 1581.39 428.698 1580.6C438.696 1579.58 448.554 1578.96 458.259 1578.96C487.273 1578.96 514.952 1584.59 541.385 1600.7C558.124 1610.87 576.81 1614.55 596.208 1614.55C600.113 1614.55 604.107 1614.46 608.012 1614.15C632.027 1612.51 654.236 1604.99 676.675 1597.73C683.721 1595.45 690.527 1591.94 698.184 1591.94H698.807C703.577 1592.1 708.347 1591.7 711.4 1596.64C714.682 1601.79 711.4 1605.71 708.665 1609.38C705.46 1613.61 701.708 1617.43 698.108 1621.26C677.222 1643.32 652.748 1660.84 628.199 1678.35C595.966 1701.43 562.818 1723.01 532.315 1748.35C509.012 1767.67 498.136 1794.65 485.467 1820.54C481.397 1828.83 485.544 1834.53 493.608 1834.53C495.007 1834.53 496.572 1834.37 498.136 1833.98C504.624 1832.5 510.106 1828.98 515.499 1825.31C532.239 1814.2 549.754 1804.42 568.911 1797.86C599.566 1787.3 630.31 1777.05 659.63 1762.81C671.905 1756.95 685.515 1755.55 699.278 1754.68C704.76 1754.37 710.23 1754.21 715.7 1754.21C742.768 1754.21 769.582 1757.81 796.485 1760.47C822.141 1763.05 847.797 1764.85 873.441 1764.85C899.021 1764.85 924.588 1763.05 950.091 1758.6C1000.3 1749.76 1046.2 1730.76 1085.93 1697.9C1114.47 1674.22 1136.53 1645.11 1157.4 1614.85C1162.72 1607.03 1168.13 1599.21 1175.55 1593.19C1183.21 1586.86 1190.88 1583.73 1198.31 1583.73C1206.76 1583.73 1214.88 1587.72 1222.63 1595.7C1246.01 1620.09 1258.76 1649.26 1260.87 1683.04C1261.88 1698.92 1262.67 1714.88 1264.63 1730.76C1266.58 1746.01 1269.24 1761.41 1281.05 1772.75C1296.46 1787.53 1312.09 1801.84 1327.81 1816.24C1333.05 1821.01 1338.99 1824.99 1345.72 1827.42C1347.68 1828.12 1349.47 1828.51 1350.96 1828.51C1355.81 1828.51 1358.71 1825.23 1359.33 1819.05C1359.65 1816.24 1359.18 1813.18 1358.56 1810.28C1350.89 1777.29 1348.62 1743.97 1352.37 1710.11C1357.92 1659.19 1371.14 1611.65 1406.57 1572.47C1412.82 1565.51 1418.38 1557.69 1423.77 1550.02C1443.79 1521.47 1456.54 1490.43 1459.44 1455.08C1461.23 1432.79 1466.24 1410.73 1469.83 1388.6C1471.01 1381.57 1474.92 1376.72 1481.8 1374.53C1483.21 1374.06 1484.61 1373.82 1485.87 1373.82C1491.26 1373.82 1494.94 1377.74 1498.22 1381.96C1505.65 1391.43 1510.59 1402.21 1512.53 1414.03C1518.56 1450.31 1517.07 1485.73 1499.86 1519.36C1492.83 1532.97 1486.42 1546.98 1479.77 1560.74C1473.28 1574.11 1472.41 1587.87 1476.71 1602.03C1484.85 1628.46 1503.31 1647.86 1521.84 1666.79C1525.37 1670.45 1529.27 1672.11 1533.1 1672.11C1538.96 1672.11 1544.52 1668.19 1548.12 1661.31C1550.86 1656.14 1552.42 1650.35 1554.29 1644.73C1568.37 1601.88 1585.97 1560.97 1616.54 1526.56C1626.64 1515.22 1635.17 1502.17 1642.98 1488.95C1665.43 1450.7 1676.93 1409.34 1670.04 1365.07C1665.03 1332.38 1655.96 1300.46 1642.43 1270.05C1630.78 1244.09 1624.53 1216.4 1619.05 1188.55C1617.18 1178.71 1616.54 1168.53 1620.61 1158.84C1624.06 1150.62 1628.44 1146.17 1634.62 1146.17C1637.04 1146.17 1639.69 1146.87 1642.75 1148.21C1670.43 1160.87 1695.69 1176.13 1707.81 1207.09C1726.9 1255.74 1759.9 1292.26 1807.05 1315.72C1812.93 1318.62 1818.63 1321.27 1825.04 1321.27C1826.37 1321.27 1827.62 1321.12 1828.96 1320.88C1839.44 1319.16 1843.11 1313.53 1840.29 1303.44Z" fill="#1C1C1C"/>
<path d="M1355.43 985.152C1330.57 1034.42 1289.35 1060.62 1236.25 1070.24C1208.1 1075.4 1179.71 1072.82 1151.39 1073.44C1146.7 1073.61 1141.85 1073.99 1137.25 1073.37C1128.25 1072.27 1124.88 1076.81 1122.85 1084.71C1114.33 1117.24 1105.49 1149.62 1096.73 1182.07C1089.06 1210.14 1093.21 1208.9 1061.23 1208.82C1043.55 1208.74 1025.79 1209.13 1008.13 1208.58C990.445 1208.11 987.24 1203.9 991.781 1186.54C1004.21 1138.59 1017.12 1090.73 1029.86 1042.86C1033.22 1030.36 1036.75 1017.92 1040.03 1005.4C1042.14 997.121 1046.53 991.804 1055.83 991.486C1064.67 991.168 1073.51 989.769 1082.26 989.846C1123.01 989.998 1163.83 988.434 1204.5 990.711C1217.64 991.41 1230.61 990.787 1241.73 982.341C1251.74 974.747 1250.8 965.449 1238.98 961.302C1231.8 958.872 1223.97 958.096 1216.39 957.231C1167.51 951.291 1118.47 954.344 1069.51 953.873H1057.09C1031.51 953.708 1030.11 952.232 1031.98 926.805C1033.46 906.555 1027.91 889.586 1009.77 878.087C1005.54 875.429 998.891 873.165 1000.7 866.512C1002.57 859.631 1009.37 861.819 1014.31 861.742C1032.6 861.513 1050.9 861.513 1069.21 861.513C1097.59 861.437 1125.9 861.437 1154.29 861.437V861.119C1199.18 861.043 1244.07 860.801 1288.96 861.043C1322.9 861.195 1348.78 876.218 1361.3 908.043C1371.46 933.776 1368.03 960.284 1355.43 985.152ZM985.128 1110.98C979.265 1144.38 960.261 1168.08 931.017 1183.41C904.115 1197.4 875.406 1206 844.521 1205.92C795.486 1205.77 746.45 1205.92 697.414 1206C644.779 1204.83 592.232 1207.18 539.673 1204.2C536.709 1204.05 533.733 1204.45 530.833 1203.97C522.387 1202.56 520.67 1198.26 526.152 1192.08C528.963 1189.1 532.245 1186.54 535.527 1183.95C564.859 1161.11 594.344 1138.35 623.587 1115.37C634.768 1106.6 647.056 1102.62 661.289 1102.7C708.595 1103.08 755.837 1104.1 803.067 1105.9C816.054 1106.45 829.041 1105.9 842.016 1105.74C850.932 1105.59 859.531 1103.47 867.824 1100.12C873.294 1097.85 876.271 1093.63 876.271 1087.75C876.271 1081.11 871.183 1078.85 865.866 1077.59C845.068 1072.59 823.711 1072.59 802.444 1071.88C774.765 1070.95 746.921 1070.86 719.153 1070.48C713.912 1070.4 707.972 1071.25 706.102 1064.45C704.614 1058.9 708.989 1055.85 712.742 1053.04C739.25 1033.25 765.683 1013.38 793.45 995.391C804.949 987.963 816.919 985.304 830.517 987.887C844.674 990.545 858.831 989.693 872.594 985.228C876.499 983.982 880.57 982.57 883.852 980.229C892.463 974.124 891.598 965.601 882.287 960.908C877.441 958.478 872.047 958.173 866.807 957.473C831.458 952.614 795.956 954.802 760.607 954.726C715.095 954.573 669.659 950.35 624.134 952.143C621.87 952.232 619.364 952.143 617.1 951.596C613.348 950.744 608.336 951.914 607.013 946.445C605.919 941.827 608.412 938.622 611.465 935.569C626.322 921.259 641.026 906.707 656.049 892.474C688.498 861.59 688.574 861.513 733.933 861.272C795.956 861.043 857.966 861.119 920.066 861.119C927.1 861.119 934.223 861.195 941.257 861.895C980.753 865.965 1006.41 893.962 1007.81 933.61C1008.83 960.284 999.985 983.905 983.958 1004.31C972.23 1019.17 971.213 1033.4 978.323 1050.21C986.617 1069.61 988.881 1089.86 985.128 1110.98ZM1380.7 800.584C1354.49 752.566 1322.43 709.013 1281.21 672.494C1248.92 643.785 1216.77 615.088 1177.99 595.143C1100.17 555.177 1017.51 540.396 930.852 548.766C860.79 555.495 794.544 576.063 732.216 608.677C714.548 617.976 697.656 629.157 682.634 642.691C641.344 679.833 601.696 718.159 567.988 763.048C518.558 828.823 488.844 902.408 476.099 982.722C466.164 1045.14 470.464 1108.09 485.639 1169.17C508 1258.71 558.206 1332.31 624.529 1395.5C671.847 1440.62 728.388 1468.86 790.945 1485.35C844.916 1499.66 900.286 1503.34 955.885 1504.21C980.676 1503.65 1005.39 1504.75 1030.02 1499.66C1075.69 1490.12 1121.53 1480.51 1164.38 1462.05C1258.15 1421.69 1328.61 1354.36 1381.24 1267.87C1402.43 1232.99 1419.57 1196.15 1427.7 1155.64C1441.54 1086.35 1440.29 1017.14 1429.34 947.691C1421.21 895.921 1405.79 846.491 1380.7 800.584Z" fill="#1C1C1C"/>
<path d="M978.316 1050.22C986.61 1069.62 988.874 1089.87 985.121 1110.99C979.257 1144.38 960.254 1168.07 930.998 1183.4C904.095 1197.41 875.398 1206.01 844.502 1205.93C795.479 1205.78 746.443 1205.93 697.407 1206.01C644.772 1204.84 592.213 1207.18 539.666 1204.21C536.69 1204.05 533.726 1204.44 530.826 1203.97C522.38 1202.57 520.663 1198.27 526.132 1192.09C528.956 1189.11 532.238 1186.53 535.519 1183.95C564.852 1161.12 594.324 1138.36 623.58 1115.36C634.761 1106.61 647.036 1102.62 661.27 1102.69C708.588 1103.09 755.818 1104.11 803.06 1105.91C816.047 1106.46 829.021 1105.91 842.008 1105.75C850.925 1105.59 859.524 1103.48 867.817 1100.12C873.287 1097.85 876.263 1093.62 876.263 1087.76C876.263 1081.12 871.175 1078.84 865.858 1077.6C845.049 1072.59 823.704 1072.59 802.436 1071.89C774.745 1070.94 746.914 1070.87 719.146 1070.47C713.905 1070.4 707.965 1071.26 706.082 1064.46C704.594 1058.9 708.982 1055.86 712.735 1053.03C739.243 1033.26 765.676 1013.39 793.443 995.4C804.93 987.972 816.899 985.313 830.51 987.896C844.667 990.554 858.824 989.689 872.587 985.237C876.492 983.978 880.563 982.579 883.845 980.225C892.443 974.133 891.591 965.61 882.28 960.916C877.434 958.487 872.04 958.182 866.8 957.469C831.451 952.623 795.936 954.811 760.588 954.735C715.075 954.582 669.639 950.359 624.127 952.152C621.863 952.229 619.357 952.152 617.093 951.605C613.328 950.753 608.329 951.923 606.993 946.441C605.899 941.836 608.405 938.631 611.458 935.578C626.315 921.268 641.019 906.716 656.029 892.483C688.49 861.599 688.567 861.51 733.926 861.281C795.937 861.052 857.959 861.128 920.058 861.128C927.093 861.128 934.203 861.204 941.25 861.904C980.746 865.974 1006.39 893.971 1007.8 933.619C1008.82 960.293 999.978 983.902 983.951 1004.32C972.211 1019.17 971.206 1033.41 978.316 1050.22Z" fill="#F0E9DA"/>
<path d="M1355.44 985.149C1330.57 1034.41 1289.36 1060.62 1236.25 1070.23C1208.1 1075.4 1179.71 1072.82 1151.4 1073.44C1146.7 1073.6 1141.86 1073.99 1137.25 1073.36C1128.26 1072.27 1124.89 1076.81 1122.85 1084.71C1114.33 1117.23 1105.49 1149.62 1096.74 1182.07C1089.07 1210.14 1093.22 1208.89 1061.24 1208.82C1043.56 1208.74 1025.8 1209.12 1008.13 1208.58C990.451 1208.11 987.246 1203.9 991.787 1186.53C1004.21 1138.59 1017.12 1090.73 1029.87 1042.86C1033.23 1030.36 1036.75 1017.92 1040.03 1005.4C1042.15 997.118 1046.53 991.802 1055.83 991.484C1064.67 991.166 1073.51 989.766 1082.26 989.843C1123.02 989.995 1163.84 988.431 1204.5 990.708C1217.64 991.407 1230.62 990.784 1241.74 982.338C1251.75 974.744 1250.8 965.446 1238.99 961.299C1231.8 958.869 1223.98 958.093 1216.4 957.228C1167.51 951.288 1118.48 954.341 1069.52 953.87H1057.09C1031.51 953.705 1030.11 952.23 1031.98 926.802C1033.47 906.552 1027.91 889.583 1009.77 878.085C1005.55 875.426 998.897 873.162 1000.7 866.509C1002.57 859.628 1009.38 861.816 1014.31 861.739C1032.61 861.51 1050.91 861.51 1069.21 861.51C1097.59 861.434 1125.91 861.434 1154.3 861.434V861.116C1199.19 861.04 1244.08 860.798 1288.96 861.04C1322.9 861.192 1348.79 876.215 1361.3 908.04C1371.47 933.773 1368.03 960.281 1355.44 985.149Z" fill="#F0E9DA"/>
</svg>
